Patient4_TMGait_0pt7_02_left_37_EMG.mot
version=1
nRows=37
nColumns=33
inDegrees=no
endheader
time	1LAddLong	2LGlutMax	3LGlutMed	4LIliopsoas	5LSemiMemb	6LBicFemLong	7LRecFem	8LVastMed	9LVastLat	10LGasMed	11LTibAnt	12lTibPost	13LPeroneusLong	14LSol	15LExtDigLong	16LFlexDigLong	17RAddLong	18RGlutMax	19RGlutMed	20RIliopsoas	21RSemiMemb	22RBicFemLong	23RRecFem	24RVastMed	25RVastLat	26RGasMed	27RTibAnt	28RTibPost	29RPeroneusLong	30RSol	31RExtDigLong	32RFlexDigLong
43.13	-0.007629	-0.20172	0.038147	-0.007782	-0.1413	-0.001068	0.21652	0.009766	0.019379	-0.14038	0.055695	-0.021515	-0.042267	0.27939	0.093231	-0.010071	0.089722	-0.56213	-0.07782	-0.045624	-0.26688	0.04303	-0.28366	-0.049133	0.001068	0.004425	0.067291	-0.010529	-0.86655	-0.11231	-0.002747	-0.007935
43.131	0.01358	-0.20477	0.034943	0.000458	-0.05188	-0.085907	0.1973	0.00946	0.020905	-0.12589	-0.037231	-0.021057	0.005646	0.24155	0.14984	-0.022888	0.068817	-0.51209	0.11688	-0.018768	-0.54657	0.20889	-0.35843	-0.012817	0.15106	-0.007935	-0.097351	-0.00824	0.35095	0.044403	0.000763	0.00061
43.132	0.009308	-0.25116	0.053101	0.011292	0.057068	-0.12985	0.19699	0.011444	-0.007019	0.005188	-0.089417	-0.015259	0.046082	0.15167	0.10559	-0.006714	0.006561	-0.46524	0.22446	-0.063019	-0.74463	0.21362	-0.26825	0.060272	0.25436	-0.006714	-0.34576	-0.010223	1.8813	0.15152	0.001984	-0.005188
43.133	0.015564	-0.22049	0.002136	0.013428	-0.002594	-0.063019	0.19608	0.01236	-0.020905	0.24506	-0.16052	-0.019531	-0.024719	0.21668	0.21088	-0.015564	-0.084381	-0.39887	0.2504	-0.062408	-0.50674	0.14511	-0.26611	0.068359	0.61645	-0.006256	-0.37628	-0.006409	0.61813	0.17929	-0.004272	-0.007629
43.134	0.024414	-0.15579	0.002594	0.012817	-0.084534	-0.13229	0.15076	0.020905	-0.014496	0.20981	-0.014954	-0.021667	-0.037384	0.27588	0.046082	-0.000763	-0.11826	-0.37369	0.34271	0.047607	-0.68787	0.042114	-0.12161	0.30411	0.57892	-0.010681	-0.043793	-0.005035	-0.46173	0.064087	0.000458	-0.00824
43.135	0.016022	-0.1648	-0.094452	-0.012817	0.066986	-0.14282	0.15457	0.016174	-0.015869	0.042267	0.098419	-0.015411	0.031281	0.23499	0.070801	-0.00946	-0.061188	-0.37079	-0.16159	0.051727	-0.92636	0.002747	0.090942	0.29846	0.42191	-0.006256	0.20355	-0.024261	-0.53925	-0.20325	-0.000305	-0.010376
43.136	0.019226	-0.15961	-0.081177	0.001526	0.02533	-0.099182	0.15396	0.006866	0.005646	0.103	0.003204	-0.009308	0.11719	0.11963	-0.096893	-0.018616	-0.041199	-0.34729	-0.33417	0.02655	-0.64835	-0.081177	0.26184	0.011444	0.29724	-0.009918	0.62485	-0.017395	0.35355	-0.25375	0.002136	-0.010376
43.137	0.026093	-0.13534	-0.04364	0.023346	0.021515	-0.066833	0.10407	0.00412	0.039368	0.12985	-0.023651	-0.001984	0.11398	0.004578	-0.23361	-0.002289	-0.076904	-0.31097	-0.52658	-0.020599	-0.33936	-0.10269	0.17593	-0.10147	0.66452	-0.032196	1.0664	-0.010223	1.2538	-0.22278	-0.004883	-0.012817
43.138	0.03418	-0.15503	0.054626	0.020447	-0.013733	-0.11154	0.09613	0.001526	-0.022125	-0.10483	0.026703	0.001831	0.11688	-0.020599	-0.18234	0.010986	-0.10666	-0.22354	1.0051	-0.12619	0.000458	-0.085907	0.12299	-0.12375	0.71213	-0.027313	0.53619	-0.004425	0.93277	-0.29266	0.001221	-0.011597
43.139	0.024872	-0.14053	0.045166	0.013123	0.041351	-0.084076	0.15579	0.015869	-0.023499	-0.1268	0.05188	-0.004272	0.1532	-0.049591	-0.077209	0.063629	-0.088501	-0.14664	1.9392	-0.26032	0.035706	0.014954	0.049744	-0.16342	0.4364	-0.010376	-0.41489	-0.003967	1.6643	-0.25146	-0.000305	-0.002747
43.14	0.019379	-0.15488	0.083466	0.006104	0.080719	0.011139	0.18875	0.018311	-0.019836	0.3067	0.046844	-0.022736	0.11002	-0.15793	0.030823	0.086212	-0.028381	-0.21316	1.9527	-0.29358	-0.16037	0.17334	0.17288	-0.17456	0.112	-0.007629	-0.86609	-0.00473	1.1926	-0.18631	0	-0.00061
43.141	0.011292	-0.22034	0.031433	-0.003357	0.080414	0.12466	0.1619	0.014954	-0.017395	0.23346	0.022888	-0.025635	-0.048828	0.002747	0.079193	0.24246	-0.013733	-0.33707	1.0571	-0.076752	-0.24582	0.16037	0.24078	-0.019073	-0.3949	0.009766	-1.1952	-0.017395	0.85617	0.030212	-0.007172	0.00351
43.142	0.002899	-0.24887	0.04837	-0.012817	0.090485	0.081787	0.15427	0.009766	-0.015411	0.47302	-0.023346	0.099182	-0.24277	0.16998	0.074768	-0.012207	-0.028687	-0.401	-0.19318	0.055542	-0.26306	0.078583	0.36499	-0.026855	-0.86105	0.031891	-0.9787	-0.013123	0.28595	0.14984	0.000763	0.010223
43.143	0.001221	-0.21561	0.060577	-0.025177	0.038452	0.036316	0.10483	0.004883	0.010376	0.16022	-0.046387	-0.40405	-0.23789	0.32913	0.077972	-0.90042	-0.014343	-0.39398	-0.37918	0.11231	-0.24124	0.009613	0.19974	-0.022125	-0.99548	0.021667	-0.47302	-0.003204	-0.20157	0.1294	0.000305	-0.001373
43.144	0.001221	-0.17807	-0.009308	-0.009918	0.011444	0.060883	0.059204	0.014496	0.004578	0.079193	-0.06134	0.35278	-0.053253	0.60486	0.054016	-0.16861	0.051117	-0.35431	-0.23224	0.010376	-0.32501	-0.001526	-0.35263	0.016174	-0.8638	0.008392	0.039368	0.001678	-1.1084	0.16083	0.004425	-0.009003
43.145	-0.012207	-0.15259	-0.068207	-0.027924	0.009766	0.13825	0.044861	0.0177	-0.029449	0.23972	-0.043182	0.1532	0.11383	0.42099	0.037231	0.52216	0.11231	-0.28366	-0.066376	-0.11231	-0.30441	-0.04837	-0.49896	0.10315	-0.7489	0.002594	0.009308	-0.006256	-0.82474	0.26718	0.002594	-0.002594
43.146	-0.023041	-0.10117	-0.12466	-0.033264	-0.023193	0.16495	0.020142	0.023804	-0.014648	0.16403	-0.019836	-0.13412	0.060425	-0.29327	0.009766	0.55389	0.14175	-0.20096	-0.32776	-0.10101	-0.289	-0.080109	-0.32013	0.12222	-0.65231	0.002747	-0.019226	-0.004425	-1.1403	0.14862	0.00061	-0.009613
43.147	-0.016785	-0.056305	0.031128	-0.03067	-0.063477	0.1297	-0.002899	0.013733	0.000458	-0.59494	-0.027771	-0.21668	0.072479	-0.60776	0.048523	0.44815	0.073395	-0.1857	-0.67673	0.033569	-0.31097	0.049591	-0.33005	-0.022583	-0.23773	-0.006866	-0.015717	-0.009155	0.050507	0.3273	0.003052	-0.015106
43.148	0.006714	-0.054474	0.094757	-0.005188	-0.084381	-0.027771	-0.014191	0.009918	-0.005188	-0.70801	-0.004883	-0.020599	0.093689	-0.91202	-0.022736	-0.38284	-0.14679	-0.13962	-0.54764	0.097961	-0.50888	0.21179	-0.43228	-0.080261	-0.045624	-0.004883	-0.1355	-0.001373	0.53055	0.41184	0.000305	-0.00412
43.149	0.015106	-0.079651	0.090942	0.042267	-0.060883	-0.15869	0.012512	0.010529	-0.037231	-0.35568	0.018158	-0.010223	0.080261	-0.73685	-0.17716	0.001678	-0.20432	-0.20966	0.57449	0.19455	-0.17792	0.17166	-0.29587	-0.009613	-0.020294	-0.013275	-0.065155	-0.002594	-0.16525	0.28625	0.000916	-0.019073
43.15	0.016022	-0.13336	0.04776	0.03479	-0.022278	-0.16892	0.016022	0.024872	-0.066528	-0.074768	0.10819	0.016022	0.010834	-0.20569	-0.12787	-0.32608	-0.14313	-0.42679	1.2321	0.28381	0.18982	0.12558	0.055847	0.054779	-0.13687	-0.010223	-0.008392	0.000458	-0.62729	0.25955	0.001984	-0.008698
43.151	0.024109	-0.16205	-0.003815	0.002594	0.061798	-0.21668	0.037079	0.018768	-0.084381	0.18219	0.21744	0.061646	-0.030365	0.82947	-0.03067	0.18082	-0.054779	-0.49179	0.91705	0.15076	0.016785	0.089569	0.29846	-0.048065	-0.31311	-0.016632	-0.10147	-0.000763	-0.73898	0.30716	-0.000916	-0.013123
43.152	0.00412	-0.16174	0.014191	-0.014343	0.070343	-0.16556	0.022888	0.023804	-0.08255	0.47897	0.32623	-0.17212	-0.048676	0.19486	0.27756	-0.15961	-0.051727	-0.52338	1.059	-0.080719	0.005951	-0.08667	0.39917	0.050812	0.11871	-0.009308	-0.045776	0.004883	0.061493	0.3067	0.001678	-0.011444
43.153	0.010834	-0.16769	0.036926	-0.015411	0.032349	-0.044098	0.042877	0.022125	-0.084381	0.14618	0.025482	-0.019379	-0.008698	-0.53635	-0.18829	0.068054	-0.048523	-0.53635	0.74707	-0.080719	0.12207	-0.15961	0.31418	0.048065	0.2739	-0.004425	-0.007782	0.006561	0.010223	0.21545	0	-0.002899
43.154	0.002899	-0.20767	0.049744	-0.011444	0.007782	0.023651	0.042877	0.027313	-0.094757	-0.2359	-0.29709	-0.00351	0.03479	-0.45929	0.45578	-0.15945	-0.019073	-0.55664	0.32654	-0.033112	0.009613	-0.14008	0.21942	-0.022583	0.34317	-0.00473	-0.06134	0.004578	1.041	0.30701	-0.004578	-0.002747
43.155	-0.006104	-0.25726	0.050507	0.014648	-0.02121	0.16571	0.019836	0.030212	-0.12802	-0.050354	-0.09491	0.010986	0.072174	-0.13245	0.36209	-0.12726	0.041046	-0.47226	0.30075	0.007019	0.14511	-0.068665	0.2417	-0.023346	0.87524	-0.01297	0.001831	0.00946	0.87143	0.36163	0.006256	-0.002441
43.156	-0.011597	-0.20401	0.016632	0.017395	-0.023499	0.20752	0.022736	0.026703	-0.12314	0.055237	0.20004	0.009155	0.010223	0.13611	0.33737	0.17624	0.083771	-0.43381	0.46371	0.073853	0.33936	-0.12405	0.15518	0.18723	0.74783	-0.010834	0.15411	0.009003	0.44556	0.32898	0.001526	-0.003052
43.157	-0.024414	-0.18036	0.014191	0.008698	-0.016479	0.12756	-0.005341	0.026703	-0.11963	0.038605	0.17761	-0.005188	0.008087	0.41809	-0.21683	0.29678	0.2063	-0.34576	0.3685	0.14282	0.51041	-0.1857	-0.11993	0.070343	0.14145	-0.014038	0.20523	0.013733	-0.026855	0.20798	0.000305	-0.004883
43.158	-0.020752	-0.168	-0.001068	0.00824	-0.049133	0.007324	-0.034027	0.019684	-0.11047	0.027771	-0.013733	-0.000153	0.016632	0.45731	-0.24567	-0.075836	0.28473	-0.23743	0.34439	0.11856	0.46402	-0.11749	-0.42007	-0.078278	-0.39047	-0.000458	0.28061	0.009003	0.1416	0.11658	-0.004883	-0.000305
43.159	-0.029144	-0.087738	-0.022125	-0.006561	-0.067291	-0.063934	-0.025177	0.02655	-0.12268	-0.011902	-0.25559	0.001221	0.037994	0.36041	-0.068817	-0.04425	0.29938	-0.13916	0.21118	0.018616	0.11658	-0.112	-0.24765	-0.41016	-0.70282	0.00885	0.2359	0.011749	1.0356	-0.026245	0.004425	-0.002594
43.16	-0.024414	-0.087433	-0.03952	-0.002899	-0.094757	-0.086823	-0.10239	0.025024	0.025787	-0.10178	-0.2832	0.003052	0.040894	0.24292	-0.23315	-0.022125	0.25024	-0.14038	0.1622	-0.05722	-0.26367	0.042572	0.013733	-0.49988	-0.82504	0.009766	-0.09201	0.007782	0.7756	-0.21652	0.001526	0.003967
43.161	-0.00946	-0.090485	-0.015869	0.002441	-0.007172	-0.060577	-0.11276	0.012207	0.027771	-0.093536	-0.15472	0.00473	0.010071	0.1799	-0.27679	-0.023193	0.065765	-0.13397	0.20966	-0.13184	-0.5777	0.31586	0.29266	-0.39215	-0.66986	0.005951	-0.21744	0.005493	0.24292	-0.28107	0.002899	0.002594
43.162	0.005951	-0.13611	-0.074921	0.011749	0.040131	0.014343	-0.11597	0.010681	0.006866	0.04837	-0.076599	-0.00351	0.06424	0.12924	-0.21316	-0.016785	-0.030823	-0.15701	0.20432	-0.18158	-0.36652	0.5188	0.57297	-0.1796	-0.40482	-0.009003	-0.05127	0.009918	0.34576	-0.14725	-0.002289	-0.003967
43.163	0.015717	-0.15366	-0.05661	0.015106	0.11978	0.1059	-0.14801	0.00061	-0.021057	0.5513	-0.050964	-0.009003	0.079956	0.15686	-0.23468	-0.019989	-0.021667	-0.22827	0.30197	-0.18448	0.35385	0.48675	0.83664	0.008392	-0.050812	-0.022278	0.17136	0.013428	-0.87036	-0.11002	0.002289	-0.007477
43.164	0.014191	-0.1648	-0.099182	0.011749	0.077515	0.19089	-0.15869	-0.001526	0.030823	0.26077	-0.03479	-0.003662	0.065613	0.16724	-0.1915	-0.015869	-0.021667	-0.20691	0.2771	-0.063324	0.31982	0.40115	0.7785	-0.11459	0.58136	-0.021667	0.27786	0.008698	-1.5996	-0.064392	0.00061	-0.010071
43.165	0.009003	-0.19745	-0.24033	0.007629	0.011749	0.2626	-0.056152	0.00351	0.050201	-0.27084	-0.00824	-0.007172	0.059357	0.24994	0.13641	0.010223	-0.050964	-0.14481	0.26657	-0.026703	0.21622	0.41	0.42572	-0.033722	0.69076	-0.020142	0.31693	0.00946	-0.57693	0.057068	-0.000153	-0.008698
43.166	-0.003357	-0.17456	-0.000916	-0.003052	-0.029449	0.22522	-0.048981	0.007172	0.039215	-0.3743	0.024109	-0.007629	0.00946	0.26993	-0.073547	0.036926	0.026245	-0.011444	0.20248	-0.11932	0.19424	0.22751	0.1561	0.20355	0.51636	-0.002747	0.16419	0.007629	-0.36713	-0.085907	0.002899	-0.012512
